<svg xmlns="http://www.w3.org/2000/svg" width="108" height="94.5" viewBox="0 0 108 94.5"><path id="Icon_awesome-quote-left" data-name="Icon awesome-quote-left" d="M97.875,49.5H81V36A13.512,13.512,0,0,1,94.5,22.5h1.688a5.05,5.05,0,0,0,5.063-5.062V7.312A5.05,5.05,0,0,0,96.188,2.25H94.5A33.741,33.741,0,0,0,60.75,36V86.625A10.128,10.128,0,0,0,70.875,96.75h27A10.128,10.128,0,0,0,108,86.625v-27A10.128,10.128,0,0,0,97.875,49.5Zm-60.75,0H20.25V36a13.513,13.513,0,0,1,13.5-13.5h1.688A5.05,5.05,0,0,0,40.5,17.438V7.312A5.05,5.05,0,0,0,35.438,2.25H33.75A33.741,33.741,0,0,0,0,36V86.625A10.128,10.128,0,0,0,10.125,96.75h27A10.128,10.128,0,0,0,47.25,86.625v-27A10.128,10.128,0,0,0,37.125,49.5Z" transform="translate(0 -2.25)" fill="#16d877" opacity="0.15"></path></svg>