<svg xmlns="http://www.w3.org/2000/svg" id="Capa_1" height="512" viewBox="0 0 512 512" width="512"><g><g><path d="m512 256c0 52.971-16.097 102.195-43.674 143.043-3.205 0-5.806 2.601-5.806 5.806v2.437c-4.751 6.472-9.8 12.708-15.135 18.698l-13.589 3.83c-116.265 32.758-239.329 32.758-355.594.01l-13.589-3.83c-5.335-5.991-10.383-12.237-15.135-18.708 7.895-11.049 3.942-26.532-8.284-32.451l-15.852-7.67c-16.239-33.618-25.342-71.331-25.342-111.165 0-46.08 12.186-89.344 33.536-126.72.051-.102.102-.205.154-.256 44.083-77.107 127.129-129.024 222.31-129.024s178.227 51.917 222.31 129.024c.051.051.102.154.154.256 21.35 37.376 33.536 80.64 33.536 126.72z" fill="#ffe706"></path><g><path d="m512 256c0 52.971-16.097 102.195-43.674 143.043-3.205 0-5.806 2.601-5.806 5.806v2.437c-4.751 6.472-9.8 12.708-15.135 18.698l-13.589 3.83c-116.265 32.758-239.329 32.758-355.594.01l-13.589-3.83c-5.335-5.991-10.383-12.237-15.135-18.708 7.895-11.049 3.942-26.532-8.284-32.451l-15.852-7.67c-16.239-33.618-25.342-71.331-25.342-111.165 0-46.08 12.186-89.344 33.536-126.72.051-.102.102-.205.154-.256 25.395 44.39 63.693 80.435 109.824 103.014 3.482 1.71 7.035 3.348 10.629 4.895 1.792.788 3.594 1.536 5.396 2.273 29.03 11.827 60.723 18.483 93.901 18.79h5.12c33.178-.307 64.87-6.963 93.901-18.79 2.048-.829 4.076-1.69 6.103-2.58 3.348-1.454 6.666-2.99 9.923-4.588 46.08-22.579 84.429-58.624 109.824-103.014.051.051.102.154.154.256 21.349 37.376 33.535 80.64 33.535 126.72z" fill="#ffbf03"></path></g></g><g><path d="m256 388.23c-66.56.81-133.19-4.65-199.01-16.36l-26.42-4.7v-20.73l2.51-1.7c9.45-6.4 15.1-17.07 15.1-28.48l75.49-18.91c17.56-11.53 28.13-31.13 28.13-52.14v-4.28l9.48-19.01h94.72l2.39 2.46c44.52 45.93 43.45 119.23-2.39 163.85z" fill="#00b3ff"></path><path d="m221.311 314.605h28.719v10.078h-28.719z" fill="#303b5a"></path><path d="m454.123 345.446v21.719c-65.372 13.241-131.706 20.265-198.123 21.064v-166.308h74.414c13.015 0 24.904 7.363 30.71 19.005v10.445c0 19.394 10.865 37.151 28.129 45.978h29.461c13.998 0 26.091 8.12 31.846 19.907l-1.956 2.57c-6.441 8.417-3.809 20.592 5.519 25.62z" fill="#0275fa"></path><path d="m316.721 314.605h28.719v10.078h-28.719z" fill="#303b5a"></path><path d="m256 407.286h-206.52c-9.206-12.554-17.306-25.969-24.136-40.12h230.656l1.464.809c15.811 8.755 14.951 31.764-1.464 39.311z" fill="#384c81"></path><path d="m468.33 367.17v31.87c-1.89 2.79-3.82 5.54-5.81 8.25h-206.52v-40.12z" fill="#303b5a"></path><path d="m167.393 240.928-16.507 56.423h-27.218l28.13-56.423z" fill="#384c81"></path><path d="m181.832 240.928h68.198v56.422.001h-82.64v-.001z" fill="#384c81"></path><path d="m389.253 297.351h-27.218l-16.507-56.423h15.596z" fill="#303b5a"></path><path d="m331.089 240.928h-68.198v56.423h82.64z" fill="#303b5a"></path><path d="m64.031 316.264h-15.852c-10.352 2.594-17.613 11.898-17.613 22.571v7.607h17.859c12.646 0 22.886-10.25 22.886-22.886v-7.291h-7.28z" fill="#fff"></path><path d="m454.12 332.76v12.69h-35.56v-28.19h32c2.28 4.68 3.56 9.94 3.56 15.5z" fill="#fd4b4a"></path><g transform="matrix(.707 -.707 .707 .707 -236.774 192.536)"><ellipse cx="114.024" cy="382.08" fill="#303b5a" rx="43.904" ry="43.904"></ellipse><ellipse cx="114.024" cy="382.08" fill="#fff" rx="21.667" ry="21.667"></ellipse></g><g><ellipse cx="360.625" cy="382.08" fill="#293651" rx="43.904" ry="43.904" transform="matrix(.832 -.555 .555 .832 -151.469 264.628)"></ellipse><ellipse cx="360.625" cy="382.08" fill="#fff" rx="21.667" ry="21.667" transform="matrix(.926 -.378 .378 .926 -117.594 164.497)"></ellipse></g></g><g><path d="m256 512c-76.155 0-144.527-33.249-191.416-86.016h191.416l6.799 12.769c11.797 22.129-6.799 73.247-6.799 73.247z" fill="#9596a5"></path><path d="m447.406 425.984c-46.827 52.685-115.067 85.914-191.058 86.016h-.348v-86.016z" fill="#7e7f91"></path></g><path d="m370.476 97.722v-.01c-18.186 0-36.362 1.413-54.016 4.26-13.66 2.201-23.9 12.923-24.381 25.528-.389 10.752-.574 24.545-.574 27.955 0 41.513 22.569 81.111 61.911 108.626 5.018 3.512 11.049 5.263 17.06 5.263l5.775-9.882c29.482-50.503 27.239-113.479-5.775-161.74z" fill="#384c81"></path><path d="m449.445 155.46c0 41.512-22.567 81.104-61.911 108.625-5.016 3.507-11.045 5.261-17.059 5.261v-171.629c18.183 0 36.365 1.408 54.014 4.25 13.658 2.202 23.902 12.928 24.379 25.537.394 10.726.577 24.525.577 27.956z" fill="#303b5a"></path><path d="m374.695 240.836-4.219 8.274c-2.591 0-5.171-.758-7.322-2.253-31.222-21.842-50.852-53.504-50.852-88.75 0-3.318.164-15.719.522-24.904.205-5.765 4.813-10.568 11.039-11.561 15.053-2.417 30.638-3.686 46.612-3.686 22.478 37.499 24.076 83.927 4.22 122.88z" fill="#00b3ff"></path><path d="m428.649 158.109c0 35.24-19.63 66.908-50.852 88.745-2.15 1.498-4.735 2.253-7.321 2.253v-131.153c15.977 0 31.56 1.267 46.609 3.687 6.225.998 10.834 5.799 11.044 11.559.351 9.19.52 21.594.52 24.909z" fill="#0275fa"></path><path d="m370.476 211.857h-10.895v-21.791h-21.801v-21.811h21.801v-21.791h10.895c7.639 21.125 7.639 44.268 0 65.393z" fill="#fff"></path><path d="m403.173 168.254v21.808h-21.808v21.794h-10.89v-65.396h10.89v21.794z" fill="#dff0f8"></path></g></svg>