<svg xmlns="http://www.w3.org/2000/svg" width="55" height="46" viewBox="0 0 55 46" fill="none"><path d="M30.3227 21.2139H32.2914V23.2339H30.3227V21.2139ZM30.3227 25.2026H32.2914V36H30.3227V25.2026ZM37.2481 23.7568C37.2481 22.6084 37.5489 21.7197 38.1505 21.0908C38.7521 20.4619 39.5997 20.1475 40.6935 20.1475C41.1104 20.1475 41.5138 20.1885 41.9034 20.2705C42.2999 20.3525 42.7784 20.5063 43.339 20.7319L42.6212 22.27C41.8966 22.0308 41.3019 21.9111 40.837 21.9111C40.3175 21.9111 39.9176 22.0615 39.6373 22.3623C39.3639 22.6631 39.2271 23.0801 39.2271 23.6133V25.2026H42.2931V26.9048H39.2271V35.3027C39.2271 36.0273 39.1725 36.6904 39.0631 37.292C38.9605 37.9004 38.7896 38.5396 38.5504 39.2095H37.2481V26.9048H35.3614V25.2026H37.2481V23.7568ZM46.0296 30.9551C46.0843 32.0762 46.3851 32.9341 46.9319 33.5288C47.4788 34.1235 48.2479 34.4209 49.2391 34.4209C49.7859 34.4209 50.3123 34.3628 50.8182 34.2466C51.3309 34.1304 51.9119 33.9321 52.5613 33.6519L53.1868 35.1182C52.4417 35.4805 51.7444 35.7471 51.095 35.918C50.4456 36.082 49.7928 36.1641 49.1365 36.1641C47.5096 36.1641 46.2483 35.6753 45.3528 34.6978C44.4573 33.7202 44.0096 32.3496 44.0096 30.5859C44.0096 28.8223 44.4505 27.4551 45.3323 26.4844C46.2142 25.5068 47.4617 25.0181 49.075 25.0181C50.5857 25.0181 51.7103 25.4727 52.4485 26.3818C53.1937 27.291 53.5662 28.6685 53.5662 30.5142V30.9551H46.0296ZM51.5257 29.3042C51.471 28.4634 51.2317 27.8311 50.8079 27.4072C50.3909 26.9766 49.8133 26.7612 49.075 26.7612C47.4344 26.7612 46.4534 27.6089 46.1321 29.3042H51.5257Z" fill="#575F64"></path><g clip-path="url(#clip0)"><path d="M19.051 30.1086H17.0526C16.5004 30.1086 16.0535 29.6617 16.0535 29.1094C16.0535 28.5571 16.5004 28.1102 17.0526 28.1102H19.051C19.6033 28.1102 20.0502 28.5571 20.0502 29.1094C20.0502 29.6617 19.6033 30.1086 19.051 30.1086Z" fill="#32393F"></path><path d="M17.2895 14.2105C17.944 14.2105 18.4737 14.75 18.4737 15.4166V31.1758C18.4737 32.5055 19.5365 33.5879 20.8421 33.5879C22.1477 33.5879 23.2105 32.5055 23.2105 31.1758V29.9697C23.2105 29.3031 23.7402 28.7636 24.3947 28.7636C25.0493 28.7636 25.5789 29.3031 25.5789 29.9697V31.1758C25.5789 33.8364 23.4546 36 20.8421 36C19.4205 36 18.1583 35.346 17.2895 34.3333C16.5617 33.4849 16.1053 32.3887 16.1053 31.1758V15.4166C16.1053 14.75 16.6349 14.2105 17.2895 14.2105Z" fill="#575F64"></path><path d="M18.0518 17.0526C18.0518 16.5004 17.6049 16.0535 17.0526 16.0535V32.7245C17.6667 32.0216 18.0518 31.1134 18.0518 30.1086V17.0526Z" fill="#474F54"></path><path d="M17.0526 0C16.5004 0 16.0535 0.446899 16.0535 0.999178V2.99753C16.0535 3.54981 16.5004 3.99671 17.0526 3.99671C17.6049 3.99671 18.0518 3.54981 18.0518 2.99753V0.999178C18.0518 0.446899 17.6049 0 17.0526 0Z" fill="#575F64"></path><path d="M18.0518 2.99753V0.999178C18.0518 0.446899 17.6049 0 17.0526 0V3.99671C17.6049 3.99671 18.0518 3.54981 18.0518 2.99753Z" fill="#474F54"></path><path d="M17.0526 1.99835L25.046 18.0513C25.3012 18.0513 25.5564 17.9542 25.7515 17.76C26.2297 17.2858 27.7538 16.0535 29.0428 16.0535C30.3318 16.0535 31.9225 17.2858 32.4006 17.76C32.6832 18.0412 33.1092 18.1305 33.4896 17.9747C33.8623 17.8196 34.1053 17.4556 34.1053 17.0526C34.1053 8.78796 26.4189 1.99835 17.0526 1.99835Z" fill="#CC3D3D"></path><path d="M0 17.0526C0 17.4556 0.242933 17.8196 0.615693 17.9747C0.988453 18.1279 1.41877 18.0459 1.70466 17.76C2.1828 17.2858 3.77349 16.0535 5.0625 16.0535C6.35151 16.0535 7.87559 17.2858 8.35373 17.76C8.5489 17.9542 8.80402 18.0513 9.05921 18.0513L17.0526 1.99835C7.68634 1.99835 0 8.78796 0 17.0526Z" fill="#E6455F"></path><path d="M17.0526 1.99835C12.6381 1.99835 9.05947 9.22214 9.0592 18.0513C9.31439 18.0513 9.56952 17.9542 9.76469 17.76C10.2428 17.2858 11.7669 16.0535 13.0559 16.0535C14.3449 16.0535 15.869 17.2858 16.3471 17.76C16.5423 17.9542 16.7974 18.0513 17.0526 18.0513C17.3078 18.0513 17.5629 17.9542 17.7581 17.76C18.2363 17.2858 19.7603 16.0535 21.0493 16.0535C22.3383 16.0535 23.8624 17.2858 24.3406 17.76C24.5357 17.9542 24.7909 18.0513 25.046 18.0513C25.0458 9.22214 21.4672 1.99835 17.0526 1.99835Z" fill="#FF6699"></path><path d="M21.0493 16.0535C22.3383 16.0535 23.8624 17.2858 24.3406 17.76C24.5357 17.9542 24.7909 18.0513 25.046 18.0513C25.0458 9.22214 21.4672 1.99835 17.0526 1.99835V18.0513C17.3078 18.0513 17.5629 17.9542 17.7581 17.76C18.2363 17.2858 19.7603 16.0535 21.0493 16.0535Z" fill="#E6455F"></path><path d="M19.051 8.06003H18.0518V7.06085C18.0518 6.50857 17.6049 6.06168 17.0526 6.06168C16.5004 6.06168 16.0535 6.50857 16.0535 7.06085V8.06003H15.0543C14.502 8.06003 14.0551 8.50693 14.0551 9.05921C14.0551 9.61149 14.502 10.0584 15.0543 10.0584H16.0535V11.0576C16.0535 11.6098 16.5004 12.0567 17.0526 12.0567C17.6049 12.0567 18.0518 11.6098 18.0518 11.0576V10.0584H19.051C19.6033 10.0584 20.0502 9.61149 20.0502 9.05921C20.0502 8.50693 19.6033 8.06003 19.051 8.06003Z" fill="#EDF5FF"></path><path d="M18.0518 11.0576V10.0584H19.051C19.6033 10.0584 20.0502 9.61149 20.0502 9.05921C20.0502 8.50693 19.6033 8.06003 19.051 8.06003H18.0518V7.06085C18.0518 6.50857 17.6049 6.06168 17.0526 6.06168V12.0567C17.6049 12.0567 18.0518 11.6098 18.0518 11.0576Z" fill="#D5E8FE"></path></g><defs><clipPath id="clip0"><rect width="34.1053" height="36" fill="white"></rect></clipPath></defs></svg>