<svg xmlns="http://www.w3.org/2000/svg" width="64" height="64" viewBox="0 0 64 64" fill="none"><path d="M32 64C49.6731 64 64 49.6731 64 32C64 14.3269 49.6731 0 32 0C14.3269 0 0 14.3269 0 32C0 49.6731 14.3269 64 32 64Z" fill="#6CBAE5"></path><path d="M21.3464 47.8415L37.1006 63.5957C52.3494 61.1531 64 47.9371 64 32C64 30.4097 63.884 28.8465 63.66 27.3185L50.3981 14.0566L21.3464 47.8415Z" fill="#73B2D6"></path><path d="M32 38.0517C33.4456 35.4512 36.1937 33.8452 39.169 33.8621C43.5821 33.8621 46.8965 36.4811 46.8965 41.7181C46.8965 46.9552 43.5858 49.05 41.3792 51.1448C39.1727 53.2397 32 59 32 59C32 59 24.831 53.2397 22.6208 51.1448C20.4105 49.05 17.1034 46.9552 17.1034 41.7181C17.1034 36.4811 20.4142 33.8621 24.831 33.8621C27.8063 33.8452 30.5543 35.4512 32 38.0517Z" fill="#DF4D60"></path><path d="M32 38.0517C33.1219 35.5726 35.5563 33.9475 38.2761 33.8621C42.138 33.8621 45.0345 36.4801 45.0345 41.7172C45.0345 46.9543 42.138 49.0491 40.2071 51.1439C38.2761 53.2388 32 59 32 59C32 59 25.7239 53.2388 23.7929 51.1439C21.862 49.0491 18.9655 46.9543 18.9655 41.7172C18.9655 36.4801 21.862 33.8621 25.7239 33.8621C28.4437 33.9475 30.8781 35.5726 32 38.0517Z" fill="#FF5364"></path><path d="M32 52.4828H31.9572C31.5535 52.4642 31.2078 52.1874 31.1016 51.7975L29.1138 44.5224L28.2247 47.1908C28.0984 47.5698 27.7444 47.8261 27.3448 47.8276H15.2414C14.7272 47.8276 14.3103 47.4107 14.3103 46.8966C14.3103 46.3824 14.7272 45.9655 15.2414 45.9655H26.6735L28.3233 41.0161C28.4437 40.6197 28.8193 40.3567 29.233 40.3793C29.6432 40.3908 29.9976 40.6695 30.1053 41.0655L32.1397 48.5268L33.9207 43.7785C34.0551 43.4176 34.3978 43.1767 34.7829 43.1724H34.7931C35.1738 43.1721 35.5164 43.4037 35.658 43.7571L36.7483 46.4878V46.4804C36.9068 46.1632 37.2316 45.9636 37.5862 45.9655H48.7586C49.2728 45.9655 49.6897 46.3824 49.6897 46.8966C49.6897 47.4107 49.2728 47.8276 48.7586 47.8276H38.1616L37.4931 49.1748C37.3257 49.4999 36.9863 49.6999 36.6207 49.6887C36.2545 49.6736 35.9313 49.4451 35.7949 49.105L34.8257 46.6843L32.877 51.8822C32.7389 52.246 32.3891 52.4855 32 52.4828Z" fill="#F3D55B"></path><path d="M33.8621 19.8965V31.069C33.8621 32.0974 33.0284 32.931 32 32.931C30.9716 32.931 30.1379 32.0974 30.1379 31.069V19.8965" fill="#547580"></path><path d="M32 24.5517C36.6552 24.5517 37.5862 27.3448 37.5862 27.3448C43.1724 21.7586 48.7586 27.3448 48.7586 27.3448C53.4138 22.6897 59 28.2759 59 28.2759C59 28.2759 56.2069 7.79311 32 7.79311C7.7931 7.79311 5 28.2759 5 28.2759C5 28.2759 10.5862 22.6897 15.2414 27.3448C15.2414 27.3448 20.8276 21.7586 26.4138 27.3448C26.4138 27.3448 27.3448 24.5517 32 24.5517Z" fill="#FF5364"></path><path d="M32 8.72414C31.4858 8.72414 31.069 8.3073 31.069 7.7931V5.93103C31.069 5.41684 31.4858 5 32 5C32.5142 5 32.931 5.41684 32.931 5.93103V7.7931C32.931 8.3073 32.5142 8.72414 32 8.72414Z" fill="#547580"></path><path d="M32 7.79311C16.1724 11.5172 15.2414 27.3448 15.2414 27.3448C10.5862 22.6897 5 28.2759 5 28.2759C5 28.2759 7.7931 7.79311 32 7.79311Z" fill="#FF5364"></path><path d="M37.5862 27.3448C37.5862 27.3448 36.6552 24.5517 32 24.5517C27.3448 24.5517 26.4138 27.3448 26.4138 27.3448C26.4138 27.3448 26.4138 13.3793 32 7.79311C37.5862 13.3793 37.5862 27.3448 37.5862 27.3448Z" fill="#FF5364"></path><path d="M48.7586 27.3448C48.7586 27.3448 43.1724 21.7586 37.5862 27.3448C37.5862 27.3448 37.5862 13.3793 32 7.79311C47.8276 11.5172 48.7586 27.3448 48.7586 27.3448Z" fill="#7D6599"></path><path d="M32 7.79311C26.4138 13.3793 26.4138 27.3448 26.4138 27.3448C20.8276 21.7586 15.2414 27.3448 15.2414 27.3448C15.2414 27.3448 16.1724 11.5172 32 7.79311Z" fill="#7D6599"></path></svg>