<svg xmlns="http://www.w3.org/2000/svg" width="64" height="64" viewBox="0 0 64 64" fill="none"><path d="M32 64C49.6731 64 64 49.6731 64 32C64 14.3269 49.6731 0 32 0C14.3269 0 0 14.3269 0 32C0 49.6731 14.3269 64 32 64Z" fill="#443B3B"></path><path d="M13.3967 38.231C13.8137 38.231 14.1517 37.889 14.1517 37.4671C14.1517 37.0452 13.8137 36.7032 13.3967 36.7032C12.9798 36.7032 12.6418 37.0452 12.6418 37.4671C12.6418 37.889 12.9798 38.231 13.3967 38.231Z" fill="#61A2F9"></path><path d="M11.8091 35.3983C12.2261 35.3983 12.5641 35.0563 12.5641 34.6344C12.5641 34.2125 12.2261 33.8705 11.8091 33.8705C11.3922 33.8705 11.0542 34.2125 11.0542 34.6344C11.0542 35.0563 11.3922 35.3983 11.8091 35.3983Z" fill="#61A2F9"></path><path d="M10.8905 32.2433C11.3075 32.2433 11.6455 31.9012 11.6455 31.4793C11.6455 31.0575 11.3075 30.7154 10.8905 30.7154C10.4736 30.7154 10.1356 31.0575 10.1356 31.4793C10.1356 31.9012 10.4736 32.2433 10.8905 32.2433Z" fill="#61A2F9"></path><path d="M10.7549 28.9566C11.1719 28.9566 11.5099 28.6146 11.5099 28.1927C11.5099 27.7708 11.1719 27.4288 10.7549 27.4288C10.338 27.4288 10 27.7708 10 28.1927C10 28.6146 10.338 28.9566 10.7549 28.9566Z" fill="#61A2F9"></path><path d="M11.369 25.6699C11.786 25.6699 12.124 25.3279 12.124 24.906C12.124 24.4841 11.786 24.1421 11.369 24.1421C10.9521 24.1421 10.6141 24.4841 10.6141 24.906C10.6141 25.3279 10.9521 25.6699 11.369 25.6699Z" fill="#61A2F9"></path><path d="M12.6412 22.6981C13.0582 22.6981 13.3962 22.3561 13.3962 21.9342C13.3962 21.5123 13.0582 21.1703 12.6412 21.1703C12.2243 21.1703 11.8863 21.5123 11.8863 21.9342C11.8863 22.3561 12.2243 22.6981 12.6412 22.6981Z" fill="#61A2F9"></path><path d="M14.4658 19.9717C14.8828 19.9717 15.2207 19.6297 15.2207 19.2078C15.2207 18.7859 14.8828 18.4439 14.4658 18.4439C14.0489 18.4439 13.7109 18.7859 13.7109 19.2078C13.7109 19.6297 14.0489 19.9717 14.4658 19.9717Z" fill="#61A2F9"></path><path d="M22.2832 14.1985C22.7001 14.1985 23.0381 13.8565 23.0381 13.4346C23.0381 13.0127 22.7001 12.6707 22.2832 12.6707C21.8662 12.6707 21.5283 13.0127 21.5283 13.4346C21.5283 13.8565 21.8662 14.1985 22.2832 14.1985Z" fill="#61A2F9"></path><path d="M25.3335 13.204C25.7504 13.204 26.0884 12.862 26.0884 12.4401C26.0884 12.0182 25.7504 11.6762 25.3335 11.6762C24.9165 11.6762 24.5785 12.0182 24.5785 12.4401C24.5785 12.862 24.9165 13.204 25.3335 13.204Z" fill="#61A2F9"></path><path d="M28.605 12.7199C29.022 12.7199 29.36 12.3779 29.36 11.956C29.36 11.5341 29.022 11.1921 28.605 11.1921C28.1881 11.1921 27.8501 11.5341 27.8501 11.956C27.8501 12.3779 28.1881 12.7199 28.605 12.7199Z" fill="#61A2F9"></path><path d="M31.859 12.787C32.2759 12.787 32.6139 12.445 32.6139 12.0231C32.6139 11.6012 32.2759 11.2592 31.859 11.2592C31.4421 11.2592 31.1041 11.6012 31.1041 12.0231C31.1041 12.445 31.4421 12.787 31.859 12.787Z" fill="#61A2F9"></path><path d="M35.0496 13.4342C35.4665 13.4342 35.8045 13.0922 35.8045 12.6703C35.8045 12.2484 35.4665 11.9064 35.0496 11.9064C34.6327 11.9064 34.2947 12.2484 34.2947 12.6703C34.2947 13.0922 34.6327 13.4342 35.0496 13.4342Z" fill="#61A2F9"></path><path d="M38.0602 14.6821C38.4771 14.6821 38.8151 14.3401 38.8151 13.9182C38.8151 13.4963 38.4771 13.1543 38.0602 13.1543C37.6432 13.1543 37.3053 13.4963 37.3053 13.9182C37.3053 14.3401 37.6432 14.6821 38.0602 14.6821Z" fill="#61A2F9"></path><path d="M31.3249 49.6625C40.7122 49.6625 48.3222 41.9621 48.3222 32.4631C48.3222 22.9642 40.7122 15.2638 31.3249 15.2638C21.9375 15.2638 14.3275 22.9642 14.3275 32.4631C14.3275 41.9621 21.9375 49.6625 31.3249 49.6625Z" fill="#BED8FB"></path><path d="M31.3249 15.2638C30.213 15.2638 29.1266 15.3731 28.0743 15.5793C35.9065 17.1143 41.821 24.0893 41.821 32.4631C41.821 40.837 35.9065 47.8119 28.0743 49.347C29.1266 49.5532 30.2131 49.6625 31.3249 49.6625C40.7122 49.6625 48.3222 41.9621 48.3222 32.4631C48.3222 22.9642 40.7122 15.2638 31.3249 15.2638V15.2638Z" fill="#9DC6FB"></path><path d="M26.5748 28.4818L24.7402 31.1041C23.8565 32.3674 24.152 34.1165 25.4005 35.0109L25.8668 35.3449C26.6297 35.8913 27.0686 36.7903 27.0343 37.7354L26.7655 45.1289C26.7441 45.7196 27.0176 46.2816 27.4934 46.6244C28.0901 47.0544 28.8893 47.059 29.4909 46.6361L34.5167 43.1031C35.2449 42.5912 35.8792 41.9549 36.3915 41.2226L39.6298 36.5937C40.3273 35.5967 40.094 34.2161 39.1087 33.5104L31.016 27.7133C29.5798 26.6845 27.5914 27.0287 26.5748 28.4818V28.4818Z" fill="#9BD069"></path><path d="M30.2868 16.9157C29.8932 16.4591 29.8385 15.8163 30.1091 15.3081C27.1677 15.5185 24.4333 16.4859 22.0945 18.0194L19.7128 20.4295C19.0957 21.054 18.7489 21.9011 18.7489 22.7842V25.4688C18.7489 26.1659 19.5231 26.5756 20.089 26.1781L22.0459 24.8033C22.6824 24.3561 23.4387 24.1165 24.2136 24.1165H26.7321C27.5573 24.1165 28.3486 23.7847 28.9321 23.1944L31.4174 20.6795C32.0528 20.0365 32.0875 19.0054 31.4969 18.3201L30.2868 16.9157Z" fill="#9BD069"></path><path d="M42.6256 19.6171L41.6527 23.0438C41.27 24.3918 41.3715 25.8333 41.9394 27.1127L43.0018 29.5058C43.4836 30.5912 44.55 31.2895 45.726 31.2895C46.3195 31.2895 46.8996 31.1105 47.3921 30.7754L48.1809 30.2389C47.6441 26.032 45.6047 22.3024 42.6256 19.6171V19.6171Z" fill="#80B4FB"></path><path d="M42.6256 19.6171L41.6527 23.0438C41.27 24.3918 41.3715 25.8333 41.9394 27.1127L43.0018 29.5058C43.4836 30.5912 44.55 31.2895 45.726 31.2895C46.3195 31.2895 46.8996 31.1105 47.3921 30.7754L48.1809 30.2389C47.6441 26.032 45.6047 22.3024 42.6256 19.6171V19.6171Z" fill="#69AF81"></path><path d="M47.0693 16.0391C46.9018 18.6732 44.8426 21.8237 43.9568 23.067C43.7584 23.3454 43.3499 23.3463 43.1495 23.0695C42.2226 21.7893 40.0317 18.4703 40.0317 15.6992C40.0317 13.7003 41.657 12.0855 43.6433 12.1341C45.6736 12.1837 47.1997 13.9883 47.0693 16.0391V16.0391Z" fill="#FFE541"></path><path d="M43.6432 12.134C43.1865 12.1227 42.7493 12.2005 42.3461 12.3496C43.7915 12.8918 44.7641 14.385 44.659 16.039C44.5315 18.0428 43.3097 20.3445 42.3422 21.8791C42.6505 22.3638 42.9342 22.772 43.1495 23.0693C43.35 23.3462 43.7584 23.3453 43.9568 23.0669C44.8426 21.8236 46.9018 18.6731 47.0693 16.039C47.1996 13.9883 45.6736 12.1837 43.6432 12.134V12.134Z" fill="#FFC50D"></path><path d="M43.5559 17.5779C44.5082 17.5779 45.2803 16.7966 45.2803 15.8329C45.2803 14.8692 44.5082 14.088 43.5559 14.088C42.6035 14.088 41.8314 14.8692 41.8314 15.8329C41.8314 16.7966 42.6035 17.5779 43.5559 17.5779Z" fill="#F9F6F6"></path><path d="M43.8892 14.121C44.2118 14.438 44.4124 14.8813 44.4124 15.3722C44.4124 16.336 43.6403 17.1172 42.6879 17.1172C42.5739 17.1172 42.4624 17.1057 42.3545 17.0843C42.6651 17.3896 43.0886 17.578 43.5559 17.578C44.5083 17.578 45.2803 16.7968 45.2803 15.833C45.2803 14.9847 44.682 14.2781 43.8892 14.121Z" fill="#EEDFDA"></path><path d="M11.9735 6.65037L13.3921 6.02346C13.4578 5.99443 13.5321 5.99239 13.5993 6.01786L20.8669 8.76891L16.9782 10.4874L11.9553 6.82107C11.894 6.77626 11.9041 6.68092 11.9735 6.65037V6.65037Z" fill="#EEDFDA"></path><path d="M13.5993 6.01773C13.5322 5.99227 13.4578 5.99431 13.392 6.02334L11.9907 6.64271C12.0564 6.61368 12.1307 6.61164 12.1979 6.6371L19.4656 9.38816L20.8669 8.7689L13.5993 6.01773Z" fill="#C9BEB9"></path><path d="M23.9664 7.45706L22.5309 7.49525C22.3339 7.50045 22.1397 7.54424 21.959 7.6241L16.1389 10.1962C16.1114 10.2084 16.0848 10.2226 16.0593 10.2387L13.8244 11.7308L11.535 11.1842C11.501 11.176 11.4652 11.1793 11.4332 11.1934L10.635 11.5462C10.5566 11.5808 10.5476 11.6898 10.6191 11.7372L12.633 13.0712L12.2313 15.4726C12.217 15.558 12.3022 15.6253 12.3806 15.5907L13.1788 15.2379C13.2108 15.2238 13.2375 15.1995 13.2547 15.1688L14.4144 13.0979L17.015 12.4531C17.0439 12.4451 17.0723 12.435 17.0999 12.4228L22.92 9.85071C23.1006 9.77086 23.2642 9.65648 23.4019 9.51378L24.4052 8.47417C24.7766 8.08936 24.4976 7.443 23.9664 7.45706V7.45706Z" fill="#EEDFDA"></path><path d="M23.9664 7.45706L23.5621 7.46785C23.6328 7.6682 23.6017 7.90593 23.4276 8.08621L22.4244 9.12582C22.2867 9.26852 22.123 9.3829 21.9424 9.46276L16.1224 12.0349C16.0948 12.047 16.0664 12.0572 16.0374 12.0651L13.4368 12.7099L12.377 14.6025L12.2315 15.4726C12.2172 15.558 12.3023 15.6253 12.3807 15.5907L13.1789 15.2379C13.211 15.2238 13.2376 15.1995 13.2548 15.1688L14.4145 13.0979L17.0151 12.4531C17.0441 12.4451 17.0725 12.435 17.1 12.4228L22.9201 9.85071C23.1007 9.77086 23.2644 9.65648 23.4021 9.51378L24.4053 8.47417C24.7766 8.08936 24.4976 7.443 23.9664 7.45706V7.45706Z" fill="#C9BEB9"></path><path d="M16.6057 18.3552L18.0243 17.7283C18.0901 17.6993 18.142 17.6455 18.1693 17.5784L21.1141 10.3141L17.4165 11.9482C17.2981 12.0006 17.2159 12.1122 17.2001 12.242L16.4697 18.2528C16.4604 18.3285 16.5364 18.3859 16.6057 18.3552V18.3552Z" fill="#EEDFDA"></path><path d="M19.7128 10.9333L16.768 18.1976C16.7408 18.2647 16.6888 18.3185 16.623 18.3475L18.0244 17.7282C18.0901 17.6992 18.142 17.6454 18.1693 17.5783L21.1141 10.314L19.7128 10.9333Z" fill="#C9BEB9"></path><path d="M43.5543 36.5794C42.4825 38.2004 39.4172 39.3767 35.7868 39.4034V46.0607C35.7868 48.898 37.0829 51.576 39.298 53.3157L43.0804 56.2861C43.3592 56.5051 43.7493 56.5051 44.0282 56.2861L47.8106 53.3157C50.0257 51.576 51.3218 48.898 51.3218 46.0607V39.4034C47.6914 39.3767 44.6261 38.2004 43.5543 36.5794V36.5794Z" fill="#F9F6F6"></path><path d="M46.8171 38.7076V44.5992C46.8171 47.4365 45.521 50.1145 43.3059 51.8542L40.3715 54.1586L43.0806 56.2861C43.3594 56.5051 43.7495 56.5051 44.0284 56.2861L47.8108 53.3157C50.0259 51.576 51.322 48.898 51.322 46.0606V39.4034C49.655 39.3912 48.1074 39.1364 46.8171 38.7076Z" fill="#EEDFDA"></path><path d="M43.5544 58.149C43.0241 58.149 42.494 57.9753 42.0516 57.6279L38.2692 54.6574C36.9814 53.6459 35.9216 52.3283 35.2047 50.8469C34.4877 49.3654 34.1087 47.7104 34.1087 46.0608V38.2401C34.1087 37.9509 34.3392 37.7159 34.625 37.7138L35.7747 37.7053C39.0487 37.6813 41.0915 36.7159 42.1596 35.6352C42.4091 35.3827 42.6181 35.1329 42.7921 34.8986C43.1754 34.382 43.9414 34.3815 44.3222 34.8998C44.4963 35.1368 44.704 35.387 44.9492 35.6351C45.9733 36.6714 48.0602 37.6812 51.334 37.7052L52.4837 37.7137C52.7695 37.7158 53 37.9508 53 38.24V46.0607C53 47.7103 52.621 49.3652 51.904 50.8468C51.1871 52.3282 50.1274 53.6459 48.8394 54.6573L45.0571 57.6278C44.6148 57.9752 44.0845 58.149 43.5544 58.149V58.149ZM37.1441 40.4092C36.9772 40.4283 36.8514 40.5717 36.8514 40.7416V45.9955C36.8514 48.56 37.9997 50.9325 40.0018 52.5049L43.3513 55.1355C43.4707 55.2293 43.6378 55.2293 43.7572 55.1355L47.1067 52.5049C49.1088 50.9326 50.2571 48.5601 50.2571 45.9955V40.7416C50.2571 40.5717 50.1313 40.4283 49.9644 40.4092C48.5953 40.2529 47.2987 39.9552 46.1398 39.5273C45.3523 39.2365 44.6456 38.8911 44.0308 38.4991C43.739 38.313 43.3695 38.313 43.0776 38.4991C42.4628 38.8911 41.7561 39.2365 40.9686 39.5273C39.8098 39.9552 38.5133 40.2529 37.1441 40.4092V40.4092Z" fill="#766E6E"></path><path d="M52.4837 37.7138L51.334 37.7054C50.3122 37.6978 49.4061 37.5944 48.6118 37.424V40.2038C49.0529 40.2879 49.5045 40.3567 49.9645 40.4093C50.1313 40.4283 50.2572 40.5717 50.2572 40.7416V45.9955C50.2572 48.56 49.1089 50.9326 47.1068 52.505L43.7573 55.1355C43.6379 55.2293 43.4708 55.2293 43.3514 55.1355L42.5302 54.4906L40.335 56.2146C40.321 56.2256 40.3067 56.2359 40.2925 56.2464L42.0514 57.6278C42.4939 57.9752 43.024 58.1489 43.5542 58.1489C44.0844 58.1489 44.6146 57.9751 45.057 57.6277L48.8394 54.6572C50.1272 53.6458 51.1869 52.3281 51.904 50.8467C52.621 49.3652 53 47.7102 53 46.0607V38.24C53.0001 37.9509 52.7695 37.716 52.4837 37.7138V37.7138Z" fill="#5B5353"></path><path d="M43.0682 49.3246C43.0665 49.3246 43.0647 49.3246 43.063 49.3246C42.8298 49.323 42.6104 49.2124 42.4687 49.025L40.0483 45.8269C39.7948 45.4919 39.8576 45.0123 40.1887 44.7557C40.5198 44.4993 40.9938 44.5627 41.2473 44.8978L43.0768 47.315L46.8401 42.4826C47.0982 42.1511 47.5731 42.0942 47.9006 42.3554C48.2281 42.6165 48.2844 43.097 48.0263 43.4284L43.6614 49.0334C43.5182 49.2173 43.2995 49.3246 43.0682 49.3246V49.3246Z" fill="#9BD069"></path></svg>